<?xml version="1.0" standalone="no"?>
<!DOCTYPE svg PUBLIC "-//W3C//DTD SVG 20010904//EN"
 "http://www.w3.org/TR/2001/REC-SVG-20010904/DTD/svg10.dtd">
<svg version="1.0" xmlns="http://www.w3.org/2000/svg"
 width="418.000000pt" height="405.000000pt" viewBox="0 0 418.000000 405.000000"
 preserveAspectRatio="xMidYMid meet">

<g transform="translate(0.000000,405.000000) scale(0.100000,-0.100000)"
fill="#000000" stroke="none">
<path d="M20 2025 l0 -1995 620 0 620 0 0 864 0 863 660 414 660 414 0 718 0
717 -125 0 -125 0 0 -613 0 -613 -672 -440 -673 -440 -3 -797 -2 -797 -330 0
-330 0 0 1705 0 1705 330 0 330 0 0 -800 c0 -440 2 -800 5 -800 2 0 171 108
375 241 l370 241 0 357 c0 197 3 514 7 704 l6 347 -861 0 -862 0 0 -1995z
m1460 1263 l-1 -443 -106 -75 c-59 -41 -112 -79 -120 -83 -11 -7 -13 84 -13
518 l0 525 120 0 120 0 0 -442z"/>
</g>
</svg>
